# xmcd CD database file
#
# Track frame offsets:
#	150
#	17657
#	31720
#	46993
#	60629
#	74612
#	87420
#	102513
#	117208
#	131951
#	146737
#	161379
#	176767
#	190727
#	201840
#	217795
#	233023
#	247944
#	261239
#	275170
#	287418
#	301701
#	316252
#
# Disc length: 4378 seconds
#
# Revision: 0
# Processed by: cddbd v1.5.2PL0 Copyright (c) Steve Scherf et al.
# Submitted via: CDex 1.70beta2
#
DISCID=49111817
DTITLE=Bing Crosby - The Chronological Bing Crosby, Vol. 50
DYEAR=1950
DGENRE=Jazz
TTITLE0=Eileen
TTITLE1=How Can You Buy Killarney?
TTITLE2=Sorry
TTITLE3=Stay Well
TTITLE4=The Little Grey House
TTITLE5=Quicksilver
TTITLE6=Have I Told You Lately That I Love You?
TTITLE7=This Could Be Forever
TTITLE8=Helpless
TTITLE9=My Own Bit Of Land
TTITLE10=When The Sun Goes Down
TTITLE11=The Yodel Blues
TTITLE12=The Big Movie Show In The Sky
TTITLE13=Bibbidi-Bobbidi-Boo
TTITLE14=Chattanoogie Shoe Shine Boy
TTITLE15=Lock, Stock And Barrel
TTITLE16=Ask Me No Questions
TTITLE17=Life Is So Peculiar
TTITLE18=High On The List
TTITLE19=The Dixieland Band
TTITLE20=Jamboree Jones
TTITLE21=I Didn't Slip, I Wasn't Pushed, I Feel
TTITLE22=So Tall A Tree
EXTD=YEAR: 1950
EXTT0=
EXTT1=
EXTT2=
EXTT3=
EXTT4=
EXTT5=
EXTT6=
EXTT7=
EXTT8=
EXTT9=
EXTT10=
EXTT11=
EXTT12=
EXTT13=
EXTT14=
EXTT15=
EXTT16=
EXTT17=
EXTT18=
EXTT19=
EXTT20=
EXTT21=
EXTT22=
PLAYORDER=
